{
  "asset": {
    "version": "2.0",
    "generator": "THREE.GLTFExporter"
  },
  "scenes": [
    {
      "nodes": [
        3,
        6,
        9,
        12
      ],
      "name": "Scene"
    }
  ],
  "scene": 0,
  "nodes": [
    {
      "name": "Cube.001_0",
      "mesh": 0
    },
    {
      "name": "Cube.001_1",
      "mesh": 1
    },
    {
      "name": "Cube.001_2",
      "mesh": 2
    },
    {
      "matrix": [
        1,
        0,
        0,
        0,
        0,
        1,
        0,
        0,
        0,
        0,
        1,
        0,
        0,
        0.5382438898086548,
        0,
        1
      ],
      "name": "Cabinet",
      "children": [
        0,
        1,
        2
      ]
    },
    {
      "name": "Cube.008_0",
      "mesh": 3
    },
    {
      "name": "Cube.008_1",
      "mesh": 4
    },
    {
      "matrix": [
        1,
        0,
        0,
        0,
        0,
        1,
        0,
        0,
        0,
        0,
        1,
        0,
        -0.43963122367858887,
        0.20846310257911682,
        0.021421343088150024,
        1
      ],
      "name": "Bottom_drawer",
      "children": [
        4,
        5
      ]
    },
    {
      "name": "Cube.009_0",
      "mesh": 5
    },
    {
      "name": "Cube.009_1",
      "mesh": 6
    },
    {
      "matrix": [
        1,
        0,
        0,
        0,
        0,
        1,
        0,
        0,
        0,
        0,
        1,
        0,
        0.6485069990158081,
        0.32054269313812256,
        0.1717798411846161,
        1
      ],
      "name": "Door",
      "children": [
        7,
        8
      ]
    },
    {
      "name": "Cube.003_0",
      "mesh": 7
    },
    {
      "name": "Cube.003_1",
      "mesh": 8
    },
    {
      "matrix": [
        1,
        0,
        0,
        0,
        0,
        1,
        0,
        0,
        0,
        0,
        1,
        0,
        -0.43963122367858887,
        0.4009188115596771,
        0.02142132818698883,
        1
      ],
      "name": "Top_drawer",
      "children": [
        10,
        11
      ]
    }
  ],
  "bufferViews": [
    {
      "buffer": 0,
      "byteOffset": 0,
      "byteLength": 43404,
      "target": 34962,
      "byteStride": 12
    },
    {
      "buffer": 0,
      "byteOffset": 43404,
      "byteLength": 43404,
      "target": 34962,
      "byteStride": 12
    },
    {
      "buffer": 0,
      "byteOffset": 86808,
      "byteLength": 28936,
      "target": 34962,
      "byteStride": 8
    },
    {
      "buffer": 0,
      "byteOffset": 115744,
      "byteLength": 13188,
      "target": 34963
    },
    {
      "buffer": 0,
      "byteOffset": 128932,
      "byteLength": 10752,
      "target": 34962,
      "byteStride": 12
    },
    {
      "buffer": 0,
      "byteOffset": 139684,
      "byteLength": 10752,
      "target": 34962,
      "byteStride": 12
    },
    {
      "buffer": 0,
      "byteOffset": 150436,
      "byteLength": 7168,
      "target": 34962,
      "byteStride": 8
    },
    {
      "buffer": 0,
      "byteOffset": 157604,
      "byteLength": 8640,
      "target": 34963
    },
    {
      "buffer": 0,
      "byteOffset": 166244,
      "byteLength": 2664,
      "target": 34962,
      "byteStride": 12
    },
    {
      "buffer": 0,
      "byteOffset": 168908,
      "byteLength": 2664,
      "target": 34962,
      "byteStride": 12
    },
    {
      "buffer": 0,
      "byteOffset": 171572,
      "byteLength": 1776,
      "target": 34962,
      "byteStride": 8
    },
    {
      "buffer": 0,
      "byteOffset": 173348,
      "byteLength": 1176,
      "target": 34963
    },
    {
      "buffer": 0,
      "byteOffset": 174524,
      "byteLength": 7980,
      "target": 34962,
      "byteStride": 12
    },
    {
      "buffer": 0,
      "byteOffset": 182504,
      "byteLength": 7980,
      "target": 34962,
      "byteStride": 12
    },
    {
      "buffer": 0,
      "byteOffset": 190484,
      "byteLength": 5320,
      "target": 34962,
      "byteStride": 8
    },
    {
      "buffer": 0,
      "byteOffset": 195804,
      "byteLength": 3348,
      "target": 34963
    },
    {
      "buffer": 0,
      "byteOffset": 199152,
      "byteLength": 21024,
      "target": 34962,
      "byteStride": 12
    },
    {
      "buffer": 0,
      "byteOffset": 220176,
      "byteLength": 21024,
      "target": 34962,
      "byteStride": 12
    },
    {
      "buffer": 0,
      "byteOffset": 241200,
      "byteLength": 14016,
      "target": 34962,
      "byteStride": 8
    },
    {
      "buffer": 0,
      "byteOffset": 255216,
      "byteLength": 8640,
      "target": 34963
    },
    {
      "buffer": 0,
      "byteOffset": 263856,
      "byteLength": 2736,
      "target": 34962,
      "byteStride": 12
    },
    {
      "buffer": 0,
      "byteOffset": 266592,
      "byteLength": 2736,
      "target": 34962,
      "byteStride": 12
    },
    {
      "buffer": 0,
      "byteOffset": 269328,
      "byteLength": 1824,
      "target": 34962,
      "byteStride": 8
    },
    {
      "buffer": 0,
      "byteOffset": 271152,
      "byteLength": 1224,
      "target": 34963
    },
    {
      "buffer": 0,
      "byteOffset": 272376,
      "byteLength": 18108,
      "target": 34962,
      "byteStride": 12
    },
    {
      "buffer": 0,
      "byteOffset": 290484,
      "byteLength": 18108,
      "target": 34962,
      "byteStride": 12
    },
    {
      "buffer": 0,
      "byteOffset": 308592,
      "byteLength": 12072,
      "target": 34962,
      "byteStride": 8
    },
    {
      "buffer": 0,
      "byteOffset": 320664,
      "byteLength": 13632,
      "target": 34963
    },
    {
      "buffer": 0,
      "byteOffset": 334296,
      "byteLength": 7980,
      "target": 34962,
      "byteStride": 12
    },
    {
      "buffer": 0,
      "byteOffset": 342276,
      "byteLength": 7980,
      "target": 34962,
      "byteStride": 12
    },
    {
      "buffer": 0,
      "byteOffset": 350256,
      "byteLength": 5320,
      "target": 34962,
      "byteStride": 8
    },
    {
      "buffer": 0,
      "byteOffset": 355576,
      "byteLength": 3348,
      "target": 34963
    },
    {
      "buffer": 0,
      "byteOffset": 358924,
      "byteLength": 21024,
      "target": 34962,
      "byteStride": 12
    },
    {
      "buffer": 0,
      "byteOffset": 379948,
      "byteLength": 21024,
      "target": 34962,
      "byteStride": 12
    },
    {
      "buffer": 0,
      "byteOffset": 400972,
      "byteLength": 14016,
      "target": 34962,
      "byteStride": 8
    },
    {
      "buffer": 0,
      "byteOffset": 414988,
      "byteLength": 8640,
      "target": 34963
    }
  ],
  "buffers": [
    {
      "byteLength": 423628,
      "uri": "data:application/octet-stream;base64,"
    }
  ],
  "accessors": [
    {
      "bufferView": 0,
      "componentType": 5126,
      "count": 3617,
      "max": [
        0.699999988079071,
        -0.012005865573883057,
        0.17000000178813934
      ],
      "min": [
        -0.699999988079071,
        -0.5374999642372131,
        -0.17000240087509155
      ],
      "type": "VEC3"
    },
    {
      "bufferView": 1,
      "componentType": 5126,
      "count": 3617,
      "max": [
        1,
        1,
        1
      ],
      "min": [
        -1,
        -1,
        -1
      ],
      "type": "VEC3"
    },
    {
      "bufferView": 2,
      "componentType": 5126,
      "count": 3617,
      "max": [
        1,
        1
      ],
      "min": [
        0,
        0
      ],
      "type": "VEC2"
    },
    {
      "bufferView": 3,
      "componentType": 5123,
      "count": 6594,
      "max": [
        3616
      ],
      "min": [
        0
      ],
      "type": "SCALAR"
    },
    {
      "bufferView": 4,
      "componentType": 5126,
      "count": 896,
      "max": [
        0.6515077948570251,
        -0.09681129455566406,
        0.17477978765964508
      ],
      "min": [
        0.6455077528953552,
        -0.33859124779701233,
        0.16877977550029755
      ],
      "type": "VEC3"
    },
    {
      "bufferView": 5,
      "componentType": 5126,
      "count": 896,
      "max": [
        1,
        1,
        1
      ],
      "min": [
        -1,
        -1,
        -1
      ],
      "type": "VEC3"
    },
    {
      "bufferView": 6,
      "componentType": 5126,
      "count": 896,
      "max": [
        1.0004407167434692,
        0.12370133399963379
      ],
      "min": [
        -0.00044086959678679705,
        0
      ],
      "type": "VEC2"
    },
    {
      "bufferView": 7,
      "componentType": 5123,
      "count": 4320,
      "max": [
        895
      ],
      "min": [
        0
      ],
      "type": "SCALAR"
    },
    {
      "bufferView": 8,
      "componentType": 5126,
      "count": 222,
      "max": [
        0.75,
        0.01249999925494194,
        0.19999998807907104
      ],
      "min": [
        -0.75,
        -0.01249999925494194,
        -0.19999998807907104
      ],
      "type": "VEC3"
    },
    {
      "bufferView": 9,
      "componentType": 5126,
      "count": 222,
      "max": [
        1,
        0.9969173073768616,
        1
      ],
      "min": [
        -1,
        -1,
        -1
      ],
      "type": "VEC3"
    },
    {
      "bufferView": 10,
      "componentType": 5126,
      "count": 222,
      "max": [
        0.622222900390625,
        0.8831667900085449
      ],
      "min": [
        0.48478758335113525,
        0.1396036148071289
      ],
      "type": "VEC2"
    },
    {
      "bufferView": 11,
      "componentType": 5123,
      "count": 588,
      "max": [
        221
      ],
      "min": [
        0
      ],
      "type": "SCALAR"
    },
    {
      "bufferView": 12,
      "componentType": 5126,
      "count": 665,
      "max": [
        0.20749999582767487,
        0.09707954525947571,
        0.14857864379882812
      ],
      "min": [
        -0.20749999582767487,
        -0.06492045521736145,
        -0.18616259098052979
      ],
      "type": "VEC3"
    },
    {
      "bufferView": 13,
      "componentType": 5126,
      "count": 665,
      "max": [
        1.0000001192092896,
        1.0000001192092896,
        1
      ],
      "min": [
        -1,
        -1.0000001192092896,
        -1
      ],
      "type": "VEC3"
    },
    {
      "bufferView": 14,
      "componentType": 5126,
      "count": 665,
      "max": [
        0.875,
        1
      ],
      "min": [
        0,
        0
      ],
      "type": "VEC2"
    },
    {
      "bufferView": 15,
      "componentType": 5123,
      "count": 1674,
      "max": [
        664
      ],
      "min": [
        0
      ],
      "type": "SCALAR"
    },
    {
      "bufferView": 16,
      "componentType": 5126,
      "count": 1752,
      "max": [
        0.060955844819545746,
        0.06192569434642792,
        0.18954822421073914
      ],
      "min": [
        -0.060955822467803955,
        0.011510463431477547,
        0.14857864379882812
      ],
      "type": "VEC3"
    },
    {
      "bufferView": 17,
      "componentType": 5126,
      "count": 1752,
      "max": [
        1,
        1,
        1.0000001192092896
      ],
      "min": [
        -1,
        -0.9963570237159729,
        -1
      ],
      "type": "VEC3"
    },
    {
      "bufferView": 18,
      "componentType": 5126,
      "count": 1752,
      "max": [
        0.5,
        1
      ],
      "min": [
        -2.2200326021959427e-9,
        0
      ],
      "type": "VEC2"
    },
    {
      "bufferView": 19,
      "componentType": 5123,
      "count": 4320,
      "max": [
        1751
      ],
      "min": [
        0
      ],
      "type": "SCALAR"
    },
    {
      "bufferView": 20,
      "componentType": 5126,
      "count": 228,
      "max": [
        0.0021160095930099487,
        0.17699995636940002,
        0.002115151844918728
      ],
      "min": [
        -0.4164386987686157,
        -0.1770000457763672,
        -0.016779832541942596
      ],
      "type": "VEC3"
    },
    {
      "bufferView": 21,
      "componentType": 5126,
      "count": 228,
      "max": [
        1,
        1,
        1.0000001192092896
      ],
      "min": [
        -1,
        -1,
        -1
      ],
      "type": "VEC3"
    },
    {
      "bufferView": 22,
      "componentType": 5126,
      "count": 228,
      "max": [
        0.875,
        1
      ],
      "min": [
        0,
        0
      ],
      "type": "VEC2"
    },
    {
      "bufferView": 23,
      "componentType": 5123,
      "count": 612,
      "max": [
        227
      ],
      "min": [
        0
      ],
      "type": "SCALAR"
    },
    {
      "bufferView": 24,
      "componentType": 5126,
      "count": 1509,
      "max": [
        0.003000780940055847,
        0.10068757086992264,
        0.04126831889152527
      ],
      "min": [
        -0.39840829372406006,
        -0.1006876528263092,
        -0.008495641872286797
      ],
      "type": "VEC3"
    },
    {
      "bufferView": 25,
      "componentType": 5126,
      "count": 1509,
      "max": [
        1,
        1,
        1
      ],
      "min": [
        -1,
        -1,
        -1
      ],
      "type": "VEC3"
    },
    {
      "bufferView": 26,
      "componentType": 5126,
      "count": 1509,
      "max": [
        1.0010987520217896,
        0.5000001192092896
      ],
      "min": [
        -0.0010985125554725528,
        0
      ],
      "type": "VEC2"
    },
    {
      "bufferView": 27,
      "componentType": 5123,
      "count": 6816,
      "max": [
        1508
      ],
      "min": [
        0
      ],
      "type": "SCALAR"
    },
    {
      "bufferView": 28,
      "componentType": 5126,
      "count": 665,
      "max": [
        0.20749999582767487,
        0.0970798134803772,
        0.14857865869998932
      ],
      "min": [
        -0.20749999582767487,
        -0.06492017209529877,
        -0.1861625760793686
      ],
      "type": "VEC3"
    },
    {
      "bufferView": 29,
      "componentType": 5126,
      "count": 665,
      "max": [
        1,
        1,
        1
      ],
      "min": [
        -1.0000001192092896,
        -1.0000001192092896,
        -1
      ],
      "type": "VEC3"
    },
    {
      "bufferView": 30,
      "componentType": 5126,
      "count": 665,
      "max": [
        0.875,
        1
      ],
      "min": [
        0,
        0
      ],
      "type": "VEC2"
    },
    {
      "bufferView": 31,
      "componentType": 5123,
      "count": 1674,
      "max": [
        664
      ],
      "min": [
        0
      ],
      "type": "SCALAR"
    },
    {
      "bufferView": 32,
      "componentType": 5126,
      "count": 1752,
      "max": [
        0.060955844819545746,
        0.0619259774684906,
        0.18954823911190033
      ],
      "min": [
        -0.060955822467803955,
        0.01151074469089508,
        0.14857865869998932
      ],
      "type": "VEC3"
    },
    {
      "bufferView": 33,
      "componentType": 5126,
      "count": 1752,
      "max": [
        1,
        1,
        1
      ],
      "min": [
        -1,
        -0.9963573217391968,
        -1.0000001192092896
      ],
      "type": "VEC3"
    },
    {
      "bufferView": 34,
      "componentType": 5126,
      "count": 1752,
      "max": [
        0.5,
        1
      ],
      "min": [
        -2.2200326021959427e-9,
        0
      ],
      "type": "VEC2"
    },
    {
      "bufferView": 35,
      "componentType": 5123,
      "count": 4320,
      "max": [
        1751
      ],
      "min": [
        0
      ],
      "type": "SCALAR"
    }
  ],
  "materials": [
    {
      "pbrMetallicRoughness": {
        "baseColorFactor": [
          0.5332764983177185,
          0.5906189680099487,
          0.6514057517051697,
          1
        ],
        "metallicFactor": 0,
        "roughnessFactor": 0.5
      },
      "doubleSided": true,
      "name": "Cabinet"
    },
    {
      "pbrMetallicRoughness": {
        "baseColorFactor": [
          0.800000011920929,
          0.800000011920929,
          0.800000011920929,
          1
        ],
        "metallicFactor": 1,
        "roughnessFactor": 0.20000000298023224
      },
      "doubleSided": true,
      "name": "Handles"
    },
    {
      "pbrMetallicRoughness": {
        "baseColorFactor": [
          0.020986465737223625,
          0.020986465737223625,
          0.020986465737223625,
          1
        ],
        "metallicFactor": 0,
        "roughnessFactor": 0.44545453786849976
      },
      "doubleSided": true,
      "name": "Top Board"
    }
  ],
  "meshes": [
    {
      "primitives": [
        {
          "mode": 4,
          "attributes": {
            "POSITION": 0,
            "NORMAL": 1,
            "TEXCOORD_0": 2
          },
          "indices": 3,
          "material": 0
        }
      ]
    },
    {
      "primitives": [
        {
          "mode": 4,
          "attributes": {
            "POSITION": 4,
            "NORMAL": 5,
            "TEXCOORD_0": 6
          },
          "indices": 7,
          "material": 1
        }
      ]
    },
    {
      "primitives": [
        {
          "mode": 4,
          "attributes": {
            "POSITION": 8,
            "NORMAL": 9,
            "TEXCOORD_0": 10
          },
          "indices": 11,
          "material": 2
        }
      ]
    },
    {
      "primitives": [
        {
          "mode": 4,
          "attributes": {
            "POSITION": 12,
            "NORMAL": 13,
            "TEXCOORD_0": 14
          },
          "indices": 15,
          "material": 0
        }
      ]
    },
    {
      "primitives": [
        {
          "mode": 4,
          "attributes": {
            "POSITION": 16,
            "NORMAL": 17,
            "TEXCOORD_0": 18
          },
          "indices": 19,
          "material": 1
        }
      ]
    },
    {
      "primitives": [
        {
          "mode": 4,
          "attributes": {
            "POSITION": 20,
            "NORMAL": 21,
            "TEXCOORD_0": 22
          },
          "indices": 23,
          "material": 0
        }
      ]
    },
    {
      "primitives": [
        {
          "mode": 4,
          "attributes": {
            "POSITION": 24,
            "NORMAL": 25,
            "TEXCOORD_0": 26
          },
          "indices": 27,
          "material": 1
        }
      ]
    },
    {
      "primitives": [
        {
          "mode": 4,
          "attributes": {
            "POSITION": 28,
            "NORMAL": 29,
            "TEXCOORD_0": 30
          },
          "indices": 31,
          "material": 0
        }
      ]
    },
    {
      "primitives": [
        {
          "mode": 4,
          "attributes": {
            "POSITION": 32,
            "NORMAL": 33,
            "TEXCOORD_0": 34
          },
          "indices": 35,
          "material": 1
        }
      ]
    }
  ]
}