{
  "accessors": [
    {
      "name": "ground_1_1_0_positions",
      "componentType": 5126,
      "count": 4,
      "min": [
        0,
        0,
        0.0012569427490234375
      ],
      "max": [
        44.400001525878906,
        0,
        56.201255798339844
      ],
      "type": "VEC3",
      "bufferView": 0,
      "byteOffset": 0
    },
    {
      "name": "ground_1_1_0_normals",
      "componentType": 5126,
      "count": 4,
      "min": [
        0,
        1,
        0
      ],
      "max": [
        0,
        1,
        0
      ],
      "type": "VEC3",
      "bufferView": 1,
      "byteOffset": 0
    },
    {
      "name": "ground_1_1_0_indices",
      "componentType": 5125,
      "count": 6,
      "min": [
        0
      ],
      "max": [
        3
      ],
      "type": "SCALAR",
      "bufferView": 3,
      "byteOffset": 0
    },
    {
      "name": "default_1_2_1_0_positions",
      "componentType": 5126,
      "count": 66682,
      "min": [
        0,
        0,
        0.0012569427490234375
      ],
      "max": [
        44.400001525878906,
        91,
        56.201255798339844
      ],
      "type": "VEC3",
      "bufferView": 0,
      "byteOffset": 48
    },
    {
      "name": "default_1_2_1_0_normals",
      "componentType": 5126,
      "count": 66682,
      "min": [
        -1,
        -1,
        -1
      ],
      "max": [
        1,
        1,
        1
      ],
      "type": "VEC3",
      "bufferView": 1,
      "byteOffset": 48
    },
    {
      "name": "default_1_2_1_0_texcoords",
      "componentType": 5126,
      "count": 66682,
      "min": [
        0,
        -1.920224666595459
      ],
      "max": [
        1.4800001382827759,
        0.9097321033477783
      ],
      "type": "VEC2",
      "bufferView": 2,
      "byteOffset": 0
    },
    {
      "name": "default_1_2_1_0_indices",
      "componentType": 5125,
      "count": 70107,
      "min": [
        0
      ],
      "max": [
        66681
      ],
      "type": "SCALAR",
      "bufferView": 3,
      "byteOffset": 24
    }
  ],
  "asset": {
    "generator": "obj2gltf",
    "version": "2.0"
  },
  "buffers": [
    {
      "name": "Wooden Chair",
      "byteLength": 2488200,
      "uri": "data:application/octet-stream;base64,"
    }
  ],
  "bufferViews": [
    {
      "name": "bufferView_0",
      "buffer": 0,
      "byteLength": 800232,
      "byteOffset": 0,
      "byteStride": 12,
      "target": 34962
    },
    {
      "name": "bufferView_1",
      "buffer": 0,
      "byteLength": 800232,
      "byteOffset": 800232,
      "byteStride": 12,
      "target": 34962
    },
    {
      "name": "bufferView_2",
      "buffer": 0,
      "byteLength": 533456,
      "byteOffset": 1600464,
      "byteStride": 8,
      "target": 34962
    },
    {
      "name": "bufferView_3",
      "buffer": 0,
      "byteLength": 280452,
      "byteOffset": 2133920,
      "target": 34963
    },
    {
      "buffer": 0,
      "byteOffset": 2414372,
      "byteLength": 73825
    }
  ],
  "images": [
    {
      "name": "Wooden_Chair_default",
      "mimeType": "image/png",
      "bufferView": 4
    }
  ],
  "materials": [
    {
      "name": "ground_1",
      "pbrMetallicRoughness": {
        "baseColorFactor": [
          0.65882355,
          0.65882355,
          0.65882355,
          1
        ],
        "metallicFactor": 0,
        "roughnessFactor": 1
      },
      "emissiveFactor": [
        0,
        0,
        0
      ],
      "alphaMode": "OPAQUE",
      "doubleSided": false
    },
    {
      "name": "default",
      "pbrMetallicRoughness": {
        "baseColorTexture": {
          "index": 0
        },
        "baseColorFactor": [
          1,
          1,
          1,
          1
        ],
        "metallicFactor": 0,
        "roughnessFactor": 1
      },
      "emissiveFactor": [
        0,
        0,
        0
      ],
      "alphaMode": "OPAQUE",
      "doubleSided": false
    }
  ],
  "meshes": [
    {
      "name": "ground_1_1",
      "primitives": [
        {
          "attributes": {
            "POSITION": 0,
            "NORMAL": 1
          },
          "indices": 2,
          "material": 0,
          "mode": 4
        }
      ]
    },
    {
      "name": "default_1_2_1",
      "primitives": [
        {
          "attributes": {
            "POSITION": 3,
            "NORMAL": 4,
            "TEXCOORD_0": 5
          },
          "indices": 6,
          "material": 1,
          "mode": 4
        }
      ]
    }
  ],
  "nodes": [
    {
      "name": "ground_1",
      "mesh": 0
    },
    {
      "name": "default_1_2",
      "mesh": 1
    }
  ],
  "samplers": [
    {
      "magFilter": 9729,
      "minFilter": 9986,
      "wrapS": 10497,
      "wrapT": 10497
    }
  ],
  "scene": 0,
  "scenes": [
    {
      "nodes": [
        0,
        1
      ]
    }
  ],
  "textures": [
    {
      "name": "Wooden_Chair_default",
      "sampler": 0,
      "source": 0
    }
  ]
}
